# Blender 5.2.1 LTS
# www.blender.org
mtllib Rocket.mtl
o Cylinder
v 0.000000 0.204990 -0.108970
v 0.000000 1.671170 -0.155715
v 0.021259 0.204990 -0.106876
v 0.030378 1.671170 -0.152723
v 0.041701 0.204990 -0.100675
v 0.059590 1.671170 -0.143862
v 0.060541 0.204990 -0.090605
v 0.086511 1.671170 -0.129472
v 0.077054 0.204990 -0.077054
v 0.110107 1.671170 -0.110107
v 0.090605 0.204990 -0.060541
v 0.129472 1.671170 -0.086511
v 0.100675 0.204990 -0.041701
v 0.143862 1.671170 -0.059590
v 0.106876 0.204990 -0.021259
v 0.152723 1.671170 -0.030378
v 0.108970 0.204990 -0.000000
v 0.155715 1.671170 0.000000
v 0.106876 0.204990 0.021259
v 0.152723 1.671170 0.030378
v 0.100675 0.204990 0.041701
v 0.143862 1.671170 0.059590
v 0.090605 0.204990 0.060541
v 0.129472 1.671170 0.086511
v 0.077054 0.204990 0.077054
v 0.110107 1.671170 0.110107
v 0.060541 0.204990 0.090605
v 0.086511 1.671170 0.129472
v 0.041701 0.204990 0.100675
v 0.059590 1.671170 0.143862
v 0.021259 0.204990 0.106876
v 0.030378 1.671170 0.152723
v 0.000000 0.204990 0.108970
v 0.000000 1.671170 0.155715
v -0.021259 0.204990 0.106876
v -0.030378 1.671170 0.152723
v -0.041701 0.204990 0.100675
v -0.059590 1.671170 0.143862
v -0.060541 0.204990 0.090605
v -0.086511 1.671170 0.129472
v -0.077054 0.204990 0.077054
v -0.110107 1.671170 0.110107
v -0.090605 0.204990 0.060541
v -0.129472 1.671170 0.086511
v -0.100675 0.204990 0.041701
v -0.143862 1.671170 0.059590
v -0.106876 0.204990 0.021259
v -0.152723 1.671170 0.030378
v -0.108970 0.204990 -0.000000
v -0.155715 1.671170 0.000000
v -0.106876 0.204990 -0.021259
v -0.152723 1.671170 -0.030378
v -0.100675 0.204990 -0.041701
v -0.143862 1.671170 -0.059590
v -0.090605 0.204990 -0.060541
v -0.129472 1.671170 -0.086511
v -0.077054 0.204990 -0.077054
v -0.110107 1.671170 -0.110107
v -0.060541 0.204990 -0.090605
v -0.086511 1.671170 -0.129472
v -0.041701 0.204990 -0.100675
v -0.059590 1.671170 -0.143862
v -0.021259 0.204990 -0.106876
v -0.030378 1.671170 -0.152723
v 0.000000 1.888669 -0.000000
v -0.055021 -0.000000 -0.132832
v -0.079878 -0.000000 -0.119546
v -0.101665 -0.000000 -0.101665
v -0.119546 -0.000000 -0.079878
v -0.132832 -0.000000 -0.055021
v -0.141014 -0.000000 -0.028049
v -0.143776 -0.000000 -0.000000
v -0.141014 -0.000000 0.028049
v -0.132832 -0.000000 0.055021
v -0.119546 -0.000000 0.079878
v -0.101665 -0.000000 0.101665
v -0.079878 -0.000000 0.119546
v -0.055021 -0.000000 0.132832
v -0.028049 -0.000000 0.141014
v -0.000000 -0.000000 0.143776
v 0.028049 -0.000000 0.141014
v 0.055021 -0.000000 0.132832
v 0.079878 -0.000000 0.119546
v 0.101665 -0.000000 0.101665
v 0.119546 -0.000000 0.079878
v 0.132832 -0.000000 0.055021
v 0.141014 -0.000000 0.028049
v 0.143776 -0.000000 -0.000000
v 0.141014 -0.000000 -0.028049
v 0.132832 -0.000000 -0.055021
v 0.119546 -0.000000 -0.079878
v 0.101665 -0.000000 -0.101665
v 0.079878 -0.000000 -0.119546
v 0.055021 -0.000000 -0.132832
v 0.028049 -0.000000 -0.141014
v -0.000000 -0.000000 -0.143776
v -0.028049 -0.000000 -0.141014
v -0.035645 -0.000000 -0.179200
v -0.000000 -0.000000 -0.182711
v -0.069920 -0.000000 -0.168803
v -0.101509 -0.000000 -0.151919
v -0.129196 -0.000000 -0.129196
v -0.151919 -0.000000 -0.101509
v -0.168803 -0.000000 -0.069920
v -0.179200 -0.000000 -0.035645
v -0.182711 -0.000000 -0.000000
v -0.179200 -0.000000 0.035645
v -0.168803 -0.000000 0.069920
v -0.151919 -0.000000 0.101509
v -0.129196 -0.000000 0.129196
v -0.101509 -0.000000 0.151919
v -0.069920 -0.000000 0.168803
v -0.035645 -0.000000 0.179200
v -0.000000 -0.000000 0.182711
v 0.035645 -0.000000 0.179200
v 0.069920 -0.000000 0.168803
v 0.101509 -0.000000 0.151919
v 0.129196 -0.000000 0.129196
v 0.151919 -0.000000 0.101509
v 0.168803 -0.000000 0.069920
v 0.179200 -0.000000 0.035645
v 0.182711 -0.000000 -0.000000
v 0.179200 -0.000000 -0.035645
v 0.168803 -0.000000 -0.069920
v 0.151919 -0.000000 -0.101509
v 0.129196 -0.000000 -0.129196
v 0.101509 -0.000000 -0.151919
v 0.069920 -0.000000 -0.168803
v 0.035645 -0.000000 -0.179200
v -0.028049 0.024963 -0.141014
v -0.000000 0.024963 -0.143776
v -0.055021 0.024963 -0.132832
v -0.079878 0.024963 -0.119546
v -0.101665 0.024963 -0.101665
v -0.119546 0.024963 -0.079878
v -0.132832 0.024963 -0.055021
v -0.141014 0.024963 -0.028049
v -0.143776 0.024963 -0.000000
v -0.141014 0.024963 0.028049
v -0.132832 0.024963 0.055021
v -0.119546 0.024963 0.079878
v -0.101665 0.024963 0.101665
v -0.079878 0.024963 0.119546
v -0.055021 0.024963 0.132832
v -0.028049 0.024963 0.141014
v -0.000000 0.024963 0.143776
v 0.028049 0.024963 0.141014
v 0.055021 0.024963 0.132832
v 0.079878 0.024963 0.119546
v 0.101665 0.024963 0.101665
v 0.119546 0.024963 0.079878
v 0.132832 0.024963 0.055021
v 0.141014 0.024963 0.028049
v 0.143776 0.024963 -0.000000
v 0.141014 0.024963 -0.028049
v 0.132832 0.024963 -0.055021
v 0.119546 0.024963 -0.079878
v 0.101665 0.024963 -0.101665
v 0.079878 0.024963 -0.119546
v 0.055021 0.024963 -0.132832
v 0.028049 0.024963 -0.141014
vn 0.0980 -0.0317 -0.9947
vn 0.2901 -0.0317 -0.9565
vn 0.4712 -0.0317 -0.8815
vn 0.6341 -0.0317 -0.7726
vn 0.7726 -0.0317 -0.6341
vn 0.8815 -0.0317 -0.4712
vn 0.9565 -0.0317 -0.2901
vn 0.9947 -0.0317 -0.0980
vn 0.9947 -0.0317 0.0980
vn 0.9565 -0.0317 0.2901
vn 0.8815 -0.0317 0.4712
vn 0.7726 -0.0317 0.6341
vn 0.6341 -0.0317 0.7726
vn 0.4712 -0.0317 0.8815
vn 0.2901 -0.0317 0.9565
vn 0.0980 -0.0317 0.9947
vn -0.0980 -0.0317 0.9947
vn -0.2901 -0.0317 0.9565
vn -0.4712 -0.0317 0.8815
vn -0.6341 -0.0317 0.7726
vn -0.7726 -0.0317 0.6341
vn -0.8815 -0.0317 0.4712
vn -0.9565 -0.0317 0.2901
vn -0.9947 -0.0317 0.0980
vn -0.9947 -0.0317 -0.0980
vn -0.9565 -0.0317 -0.2901
vn -0.8815 -0.0317 -0.4712
vn -0.7726 -0.0317 -0.6341
vn -0.6341 -0.0317 -0.7726
vn -0.4712 -0.0317 -0.8815
vn -0.7794 0.5803 0.2364
vn -0.2901 -0.0317 -0.9565
vn -0.0980 -0.0317 -0.9947
vn 0.9009 0.3370 0.2733
vn -0.9009 0.3370 0.2733
vn 0.0798 0.5803 -0.8105
vn -0.0798 0.5803 -0.8105
vn 0.7794 0.5803 0.2364
vn -0.3839 0.5803 0.7183
vn -0.6296 0.5803 -0.5167
vn 0.7183 0.5803 -0.3839
vn 0.2364 0.5803 0.7794
vn -0.8105 0.5803 0.0798
vn 0.2364 0.5803 -0.7794
vn 0.7183 0.5803 0.3839
vn -0.5167 0.5803 0.6296
vn -0.5167 0.5803 -0.6296
vn 0.7794 0.5803 -0.2364
vn 0.0798 0.5803 0.8105
vn -0.8105 0.5803 -0.0798
vn 0.3839 0.5803 -0.7183
vn 0.6296 0.5803 0.5167
vn -0.6296 0.5803 0.5167
vn -0.3839 0.5803 -0.7183
vn 0.8105 0.5803 -0.0798
vn -0.0798 0.5803 0.8105
vn -0.7794 0.5803 -0.2364
vn 0.5167 0.5803 -0.6296
vn 0.5167 0.5803 0.6296
vn -0.7183 0.5803 0.3839
vn -0.2364 0.5803 -0.7794
vn 0.8105 0.5803 0.0798
vn -0.2364 0.5803 0.7794
vn -0.7183 0.5803 -0.3839
vn 0.6296 0.5803 -0.5167
vn 0.3839 0.5803 0.7183
vn 0.4438 0.3370 0.8303
vn 0.7278 0.3370 -0.5973
vn -0.8303 0.3370 -0.4438
vn -0.2733 0.3370 0.9009
vn 0.9370 0.3370 0.0923
vn -0.2733 0.3370 -0.9009
vn -0.8303 0.3370 0.4438
vn 0.5973 0.3370 0.7278
vn 0.5973 0.3370 -0.7278
vn -0.9009 0.3370 -0.2733
vn -0.0923 0.3370 0.9370
vn 0.9370 0.3370 -0.0923
vn -0.4438 0.3370 -0.8303
vn -0.7278 0.3370 0.5973
vn 0.7278 0.3370 0.5973
vn 0.4438 0.3370 -0.8303
vn -0.9370 0.3370 -0.0923
vn 0.0923 0.3370 0.9370
vn 0.9009 0.3370 -0.2733
vn -0.5973 0.3370 -0.7278
vn -0.5973 0.3370 0.7278
vn 0.8303 0.3370 0.4438
vn 0.2733 0.3370 -0.9009
vn -0.9370 0.3370 0.0923
vn 0.2733 0.3370 0.9009
vn 0.8303 0.3370 -0.4438
vn -0.7278 0.3370 -0.5973
vn -0.4438 0.3370 0.8303
vn -0.8819 -0.0000 0.4714
vn 0.0923 0.3370 -0.9370
vn -0.0923 0.3370 -0.9370
vn -0.0000 -1.0000 -0.0000
vn 0.4714 -0.0000 -0.8819
vn 0.0980 -0.0000 0.9952
vn -0.7730 -0.0000 0.6344
vn 0.2903 -0.0000 -0.9569
vn 0.2903 -0.0000 0.9569
vn -0.6344 -0.0000 0.7730
vn 0.0980 -0.0000 -0.9952
vn 0.4714 -0.0000 0.8819
vn -0.4714 -0.0000 0.8819
vn -0.0980 -0.0000 -0.9952
vn 0.6344 -0.0000 0.7730
vn -0.2903 -0.0000 0.9569
vn -0.2903 -0.0000 -0.9569
vn 0.7730 -0.0000 0.6344
vn -0.0980 -0.0000 0.9952
vn -0.4714 -0.0000 -0.8819
vn 0.8819 -0.0000 0.4714
vn -0.6344 -0.0000 -0.7730
vn 0.9569 -0.0000 0.2903
vn -0.7730 -0.0000 -0.6344
vn 0.9952 -0.0000 0.0980
vn -0.8819 -0.0000 -0.4714
vn 0.9952 -0.0000 -0.0980
vn -0.9569 -0.0000 -0.2903
vn 0.9569 -0.0000 -0.2903
vn -0.9952 -0.0000 -0.0980
vn 0.8819 -0.0000 -0.4714
vn -0.9952 -0.0000 0.0980
vn 0.7730 -0.0000 -0.6344
vn -0.9569 -0.0000 0.2903
vn 0.6344 -0.0000 -0.7730
vt 1.000000 0.500000
vt 1.000000 1.000000
vt 0.968750 1.000000
vt 0.968750 0.500000
vt 0.937500 1.000000
vt 0.937500 0.500000
vt 0.906250 1.000000
vt 0.906250 0.500000
vt 0.875000 1.000000
vt 0.875000 0.500000
vt 0.843750 1.000000
vt 0.843750 0.500000
vt 0.812500 1.000000
vt 0.812500 0.500000
vt 0.781250 1.000000
vt 0.781250 0.500000
vt 0.750000 1.000000
vt 0.750000 0.500000
vt 0.718750 1.000000
vt 0.718750 0.500000
vt 0.687500 1.000000
vt 0.687500 0.500000
vt 0.656250 1.000000
vt 0.656250 0.500000
vt 0.625000 1.000000
vt 0.625000 0.500000
vt 0.593750 1.000000
vt 0.593750 0.500000
vt 0.562500 1.000000
vt 0.562500 0.500000
vt 0.531250 1.000000
vt 0.531250 0.500000
vt 0.500000 1.000000
vt 0.500000 0.500000
vt 0.468750 1.000000
vt 0.468750 0.500000
vt 0.437500 1.000000
vt 0.437500 0.500000
vt 0.406250 1.000000
vt 0.406250 0.500000
vt 0.375000 1.000000
vt 0.375000 0.500000
vt 0.343750 1.000000
vt 0.343750 0.500000
vt 0.312500 1.000000
vt 0.312500 0.500000
vt 0.281250 1.000000
vt 0.281250 0.500000
vt 0.250000 1.000000
vt 0.250000 0.500000
vt 0.218750 1.000000
vt 0.218750 0.500000
vt 0.187500 1.000000
vt 0.187500 0.500000
vt 0.156250 1.000000
vt 0.156250 0.500000
vt 0.125000 1.000000
vt 0.125000 0.500000
vt 0.093750 1.000000
vt 0.093750 0.500000
vt 0.062500 1.000000
vt 0.062500 0.500000
vt 0.031250 1.000000
vt 0.031250 0.500000
vt 0.000000 1.000000
vt 0.000000 0.500000
vt 0.907029 0.354923
vt 0.924481 0.322272
vt 0.750000 0.438857
vt 0.713156 0.435228
vt 0.703178 0.485388
vt 0.750000 0.490000
vt 0.677727 0.424481
vt 0.658156 0.471731
vt 0.645077 0.407029
vt 0.616663 0.449553
vt 0.616458 0.383542
vt 0.580294 0.419706
vt 0.592971 0.354923
vt 0.550447 0.383337
vt 0.575519 0.322273
vt 0.528269 0.341844
vt 0.564772 0.286844
vt 0.514612 0.296822
vt 0.561143 0.250000
vt 0.510000 0.250000
vt 0.564772 0.213156
vt 0.514612 0.203178
vt 0.575519 0.177727
vt 0.528269 0.158156
vt 0.592971 0.145077
vt 0.550447 0.116663
vt 0.616458 0.116458
vt 0.580294 0.080294
vt 0.645077 0.092971
vt 0.616663 0.050447
vt 0.677727 0.075519
vt 0.658156 0.028269
vt 0.713156 0.064772
vt 0.703178 0.014612
vt 0.750000 0.061143
vt 0.750000 0.010000
vt 0.786844 0.064772
vt 0.796822 0.014612
vt 0.822273 0.075519
vt 0.841844 0.028269
vt 0.854923 0.092971
vt 0.883337 0.050447
vt 0.883542 0.116458
vt 0.919706 0.080294
vt 0.907029 0.145077
vt 0.949553 0.116663
vt 0.924481 0.177727
vt 0.971731 0.158156
vt 0.935228 0.213156
vt 0.985388 0.203178
vt 0.938857 0.250000
vt 0.990000 0.250000
vt 0.935229 0.286844
vt 0.985388 0.296822
vt 0.971731 0.341844
vt 0.949553 0.383337
vt 0.883542 0.383542
vt 0.919706 0.419706
vt 0.854923 0.407029
vt 0.883337 0.449553
vt 0.822273 0.424481
vt 0.841844 0.471731
vt 0.786844 0.435228
vt 0.796822 0.485388
s 0
usemtl rocket_red
f 48/47/31 46/45/31 65/47/31
f 19/20/34 21/22/34 120/22/34 121/20/34
f 45/46/35 47/48/35 107/48/35 108/46/35
f 4/3/36 2/2/36 65/3/36
f 2/65/37 64/63/37 65/65/37
f 22/21/38 20/19/38 65/21/38
f 40/39/39 38/37/39 65/39/39
f 58/57/40 56/55/40 65/57/40
f 14/13/41 12/11/41 65/13/41
f 32/31/42 30/29/42 65/31/42
f 50/49/43 48/47/43 65/49/43
f 6/5/44 4/3/44 65/5/44
f 24/23/45 22/21/45 65/23/45
f 42/41/46 40/39/46 65/41/46
f 60/59/47 58/57/47 65/59/47
f 16/15/48 14/13/48 65/15/48
f 34/33/49 32/31/49 65/33/49
f 52/51/50 50/49/50 65/51/50
f 8/7/51 6/5/51 65/7/51
f 26/25/52 24/23/52 65/25/52
f 44/43/53 42/41/53 65/43/53
f 62/61/54 60/59/54 65/61/54
f 18/17/55 16/15/55 65/17/55
f 36/35/56 34/33/56 65/35/56
f 54/53/57 52/51/57 65/53/57
f 10/9/58 8/7/58 65/9/58
f 28/27/59 26/25/59 65/27/59
f 46/45/60 44/43/60 65/45/60
f 64/63/61 62/61/61 65/63/61
f 20/19/62 18/17/62 65/19/62
f 38/37/63 36/35/63 65/37/63
f 56/55/64 54/53/64 65/55/64
f 12/11/65 10/9/65 65/11/65
f 30/29/66 28/27/66 65/29/66
f 27/28/67 29/30/67 116/30/67 117/28/67
f 9/10/68 11/12/68 125/12/68 126/10/68
f 53/54/69 55/56/69 103/56/69 104/54/69
f 35/36/70 37/38/70 112/38/70 113/36/70
f 17/18/71 19/20/71 121/20/71 122/18/71
f 61/62/72 63/64/72 98/64/72 100/62/72
f 43/44/73 45/46/73 108/46/73 109/44/73
f 25/26/74 27/28/74 117/28/74 118/26/74
f 7/8/75 9/10/75 126/10/75 127/8/75
f 51/52/76 53/54/76 104/54/76 105/52/76
f 33/34/77 35/36/77 113/36/77 114/34/77
f 15/16/78 17/18/78 122/18/78 123/16/78
f 59/60/79 61/62/79 100/62/79 101/60/79
f 41/42/80 43/44/80 109/44/80 110/42/80
f 23/24/81 25/26/81 118/26/81 119/24/81
f 5/6/82 7/8/82 127/8/82 128/6/82
f 49/50/83 51/52/83 105/52/83 106/50/83
f 31/32/84 33/34/84 114/34/84 115/32/84
f 13/14/85 15/16/85 123/16/85 124/14/85
f 57/58/86 59/60/86 101/60/86 102/58/86
f 39/40/87 41/42/87 110/42/87 111/40/87
f 21/22/88 23/24/88 119/24/88 120/22/88
f 3/4/89 5/6/89 128/6/89 129/4/89
f 47/48/90 49/50/90 106/50/90 107/48/90
f 29/30/91 31/32/91 115/32/91 116/30/91
f 11/12/92 13/14/92 124/14/92 125/12/92
f 55/56/93 57/58/93 102/58/93 103/56/93
f 37/38/94 39/40/94 111/40/94 112/38/94
f 1/1/96 3/4/96 129/4/96 99/1/96
f 63/64/97 1/66/97 99/66/97 98/64/97
usemtl rocket_white
f 1/1/1 2/2/1 4/3/1 3/4/1
f 3/4/2 4/3/2 6/5/2 5/6/2
f 5/6/3 6/5/3 8/7/3 7/8/3
f 7/8/4 8/7/4 10/9/4 9/10/4
f 9/10/5 10/9/5 12/11/5 11/12/5
f 11/12/6 12/11/6 14/13/6 13/14/6
f 13/14/7 14/13/7 16/15/7 15/16/7
f 15/16/8 16/15/8 18/17/8 17/18/8
f 17/18/9 18/17/9 20/19/9 19/20/9
f 19/20/10 20/19/10 22/21/10 21/22/10
f 21/22/11 22/21/11 24/23/11 23/24/11
f 23/24/12 24/23/12 26/25/12 25/26/12
f 25/26/13 26/25/13 28/27/13 27/28/13
f 27/28/14 28/27/14 30/29/14 29/30/14
f 29/30/15 30/29/15 32/31/15 31/32/15
f 31/32/16 32/31/16 34/33/16 33/34/16
f 33/34/17 34/33/17 36/35/17 35/36/17
f 35/36/18 36/35/18 38/37/18 37/38/18
f 37/38/19 38/37/19 40/39/19 39/40/19
f 39/40/20 40/39/20 42/41/20 41/42/20
f 41/42/21 42/41/21 44/43/21 43/44/21
f 43/44/22 44/43/22 46/45/22 45/46/22
f 45/46/23 46/45/23 48/47/23 47/48/23
f 47/48/24 48/47/24 50/49/24 49/50/24
f 49/50/25 50/49/25 52/51/25 51/52/25
f 51/52/26 52/51/26 54/53/26 53/54/26
f 53/54/27 54/53/27 56/55/27 55/56/27
f 55/56/28 56/55/28 58/57/28 57/58/28
f 57/58/29 58/57/29 60/59/29 59/60/29
f 59/60/30 60/59/30 62/61/30 61/62/30
f 61/62/32 62/61/32 64/63/32 63/64/32
f 63/64/33 64/63/33 2/65/33 1/66/33
usemtl rocket_black
f 91/67/95 90/68/95 156/68/95 157/67/95
f 96/69/98 97/70/98 98/71/98 99/72/98
f 97/70/98 66/73/98 100/74/98 98/71/98
f 66/73/98 67/75/98 101/76/98 100/74/98
f 67/75/98 68/77/98 102/78/98 101/76/98
f 68/77/98 69/79/98 103/80/98 102/78/98
f 69/79/98 70/81/98 104/82/98 103/80/98
f 70/81/98 71/83/98 105/84/98 104/82/98
f 71/83/98 72/85/98 106/86/98 105/84/98
f 72/85/98 73/87/98 107/88/98 106/86/98
f 73/87/98 74/89/98 108/90/98 107/88/98
f 74/89/98 75/91/98 109/92/98 108/90/98
f 75/91/98 76/93/98 110/94/98 109/92/98
f 76/93/98 77/95/98 111/96/98 110/94/98
f 77/95/98 78/97/98 112/98/98 111/96/98
f 78/97/98 79/99/98 113/100/98 112/98/98
f 79/99/98 80/101/98 114/102/98 113/100/98
f 80/101/98 81/103/98 115/104/98 114/102/98
f 81/103/98 82/105/98 116/106/98 115/104/98
f 82/105/98 83/107/98 117/108/98 116/106/98
f 83/107/98 84/109/98 118/110/98 117/108/98
f 84/109/98 85/111/98 119/112/98 118/110/98
f 85/111/98 86/113/98 120/114/98 119/112/98
f 86/113/98 87/115/98 121/116/98 120/114/98
f 87/115/98 88/117/98 122/118/98 121/116/98
f 88/117/98 89/119/98 123/120/98 122/118/98
f 89/119/98 90/68/98 124/121/98 123/120/98
f 90/68/98 91/67/98 125/122/98 124/121/98
f 91/67/98 92/123/98 126/124/98 125/122/98
f 92/123/98 93/125/98 127/126/98 126/124/98
f 93/125/98 94/127/98 128/128/98 127/126/98
f 94/127/98 95/129/98 129/130/98 128/128/98
f 95/129/98 96/69/98 99/72/98 129/130/98
f 131/69/98 161/129/98 160/127/98 159/125/98 158/123/98 157/67/98 156/68/98 155/119/98 154/117/98 153/115/98 152/113/98 151/111/98 150/109/98 149/107/98 148/105/98 147/103/98 146/101/98 145/99/98 144/97/98 143/95/98 142/93/98 141/91/98 140/89/98 139/87/98 138/85/98 137/83/98 136/81/98 135/79/98 134/77/98 133/75/98 132/73/98 130/70/98
f 78/97/99 77/95/99 143/95/99 144/97/99
f 97/70/100 96/69/100 131/69/100 130/70/100
f 92/123/101 91/67/101 157/67/101 158/123/101
f 79/99/102 78/97/102 144/97/102 145/99/102
f 66/73/103 97/70/103 130/70/103 132/73/103
f 93/125/104 92/123/104 158/123/104 159/125/104
f 80/101/105 79/99/105 145/99/105 146/101/105
f 67/75/106 66/73/106 132/73/106 133/75/106
f 94/127/107 93/125/107 159/125/107 160/127/107
f 81/103/108 80/101/108 146/101/108 147/103/108
f 68/77/109 67/75/109 133/75/109 134/77/109
f 95/129/110 94/127/110 160/127/110 161/129/110
f 82/105/111 81/103/111 147/103/111 148/105/111
f 69/79/112 68/77/112 134/77/112 135/79/112
f 96/69/113 95/129/113 161/129/113 131/69/113
f 83/107/114 82/105/114 148/105/114 149/107/114
f 70/81/115 69/79/115 135/79/115 136/81/115
f 84/109/116 83/107/116 149/107/116 150/109/116
f 71/83/117 70/81/117 136/81/117 137/83/117
f 85/111/118 84/109/118 150/109/118 151/111/118
f 72/85/119 71/83/119 137/83/119 138/85/119
f 86/113/120 85/111/120 151/111/120 152/113/120
f 73/87/121 72/85/121 138/85/121 139/87/121
f 87/115/122 86/113/122 152/113/122 153/115/122
f 74/89/123 73/87/123 139/87/123 140/89/123
f 88/117/124 87/115/124 153/115/124 154/117/124
f 75/91/125 74/89/125 140/89/125 141/91/125
f 89/119/126 88/117/126 154/117/126 155/119/126
f 76/93/127 75/91/127 141/91/127 142/93/127
f 90/68/128 89/119/128 155/119/128 156/68/128
f 77/95/129 76/93/129 142/93/129 143/95/129
o Torus.001
v 0.129931 1.259736 0.148155
v 0.116938 1.258846 0.170642
v 0.090952 1.258846 0.170642
v 0.077958 1.259736 0.148155
v 0.090952 1.260626 0.125668
v 0.116938 1.260626 0.125668
v 0.125503 1.293339 0.149485
v 0.112953 1.289088 0.171839
v 0.087852 1.282368 0.171573
v 0.075302 1.279898 0.148953
v 0.087852 1.284148 0.126599
v 0.112953 1.290868 0.126865
v 0.112523 1.324651 0.150724
v 0.101271 1.317269 0.172954
v 0.078766 1.304286 0.172440
v 0.067514 1.298685 0.149696
v 0.078766 1.306067 0.127466
v 0.101271 1.319049 0.127980
v 0.091875 1.351539 0.151788
v 0.082687 1.341469 0.173912
v 0.064312 1.323108 0.173185
v 0.055125 1.314818 0.150335
v 0.064312 1.324888 0.128211
v 0.082687 1.343249 0.128938
v 0.064965 1.372172 0.152605
v 0.058469 1.360038 0.174647
v 0.045476 1.337551 0.173757
v 0.038979 1.327198 0.150825
v 0.045476 1.339331 0.128783
v 0.058469 1.361818 0.129673
v 0.033629 1.385142 0.153118
v 0.030266 1.371711 0.175109
v 0.023540 1.346630 0.174116
v 0.020177 1.334980 0.151133
v 0.023540 1.348410 0.129142
v 0.030266 1.373491 0.130135
v 0.000000 1.389565 0.153293
v 0.000000 1.375692 0.175266
v 0.000000 1.349727 0.174239
v 0.000000 1.337634 0.151238
v 0.000000 1.351507 0.129265
v 0.000000 1.377473 0.130292
v -0.033629 1.385142 0.153118
v -0.030266 1.371711 0.175109
v -0.023540 1.346630 0.174116
v -0.020177 1.334980 0.151133
v -0.023540 1.348410 0.129142
v -0.030266 1.373491 0.130135
v -0.064965 1.372172 0.152605
v -0.058469 1.360038 0.174647
v -0.045476 1.337551 0.173757
v -0.038979 1.327198 0.150825
v -0.045476 1.339331 0.128783
v -0.058469 1.361818 0.129673
v -0.091875 1.351539 0.151788
v -0.082687 1.341469 0.173912
v -0.064312 1.323108 0.173185
v -0.055125 1.314818 0.150335
v -0.064312 1.324888 0.128211
v -0.082687 1.343249 0.128938
v -0.112523 1.324651 0.150724
v -0.101271 1.317269 0.172954
v -0.078766 1.304286 0.172440
v -0.067514 1.298685 0.149696
v -0.078766 1.306067 0.127466
v -0.101271 1.319049 0.127980
v -0.125503 1.293339 0.149485
v -0.112953 1.289088 0.171839
v -0.087852 1.282368 0.171573
v -0.075302 1.279898 0.148953
v -0.087852 1.284148 0.126599
v -0.112953 1.290868 0.126865
v -0.129931 1.259736 0.148155
v -0.116938 1.258846 0.170642
v -0.090952 1.258846 0.170642
v -0.077958 1.259736 0.148155
v -0.090952 1.260626 0.125668
v -0.116938 1.260626 0.125668
v -0.125503 1.226134 0.146825
v -0.112953 1.228604 0.169445
v -0.087852 1.235325 0.169711
v -0.075302 1.239575 0.147357
v -0.087852 1.237105 0.124737
v -0.112953 1.230384 0.124471
v -0.112523 1.194822 0.145586
v -0.101271 1.200423 0.168330
v -0.078766 1.213406 0.168843
v -0.067514 1.220788 0.146613
v -0.078766 1.215186 0.123869
v -0.101271 1.202203 0.123355
v -0.091875 1.167933 0.144521
v -0.082687 1.176224 0.167372
v -0.064312 1.194584 0.168098
v -0.055125 1.204654 0.145975
v -0.064312 1.196364 0.123124
v -0.082687 1.178004 0.122398
v -0.064965 1.147301 0.143705
v -0.058469 1.157655 0.166637
v -0.045476 1.180142 0.167527
v -0.038979 1.192275 0.145485
v -0.045476 1.181922 0.122553
v -0.058469 1.159434 0.121663
v -0.033629 1.134331 0.143191
v -0.030266 1.145982 0.166175
v -0.023540 1.171063 0.167168
v -0.020177 1.184493 0.145177
v -0.023540 1.172843 0.122193
v -0.030266 1.147762 0.121201
v 0.000000 1.129907 0.143016
v 0.000000 1.142000 0.166017
v 0.000000 1.167966 0.167045
v 0.000000 1.181839 0.145072
v 0.000000 1.169746 0.122071
v 0.000000 1.143780 0.121043
v 0.033628 1.134331 0.143191
v 0.030266 1.145982 0.166175
v 0.023540 1.171063 0.167168
v 0.020177 1.184493 0.145177
v 0.023540 1.172843 0.122193
v 0.030266 1.147761 0.121201
v 0.064965 1.147301 0.143705
v 0.058469 1.157655 0.166637
v 0.045476 1.180142 0.167527
v 0.038979 1.192275 0.145485
v 0.045476 1.181922 0.122553
v 0.058469 1.159435 0.121663
v 0.091875 1.167933 0.144521
v 0.082687 1.176224 0.167372
v 0.064312 1.194584 0.168098
v 0.055125 1.204654 0.145975
v 0.064312 1.196364 0.123124
v 0.082687 1.178004 0.122398
v 0.112523 1.194822 0.145586
v 0.101271 1.200423 0.168330
v 0.078766 1.213406 0.168843
v 0.067514 1.220788 0.146613
v 0.078766 1.215186 0.123869
v 0.101271 1.202203 0.123355
v 0.125503 1.226134 0.146825
v 0.112953 1.228604 0.169445
v 0.087852 1.235325 0.169711
v 0.075302 1.239575 0.147357
v 0.087852 1.237105 0.124737
v 0.112953 1.230384 0.124471
vn 0.8605 0.0935 0.5009
vn -0.0000 -0.0395 0.9992
vn -0.8605 -0.1328 0.4919
vn -0.8605 -0.0935 -0.5009
vn -0.0000 0.0395 -0.9992
vn 0.8018 0.3122 0.5095
vn 0.8605 0.1328 -0.4919
vn -0.5283 -0.6683 -0.5236
vn 0.6885 0.5083 0.5173
vn -0.6885 -0.5476 0.4755
vn 0.8605 -0.0935 -0.5009
vn 0.6885 0.5476 -0.4755
vn 0.5283 0.6683 0.5236
vn -0.5283 -0.7076 0.4692
vn -0.3321 -0.7815 -0.5281
vn 0.5283 0.7076 -0.4692
vn 0.3321 0.7815 0.5281
vn -0.3321 -0.8208 0.4647
vn -0.1133 -0.8401 -0.5304
vn 0.3321 0.8208 -0.4647
vn 0.1133 0.8401 0.5304
vn -0.1133 -0.8794 0.4624
vn 0.1133 -0.8401 -0.5304
vn 0.1133 0.8794 -0.4624
vn -0.1133 0.8401 0.5304
vn 0.1133 -0.8794 0.4624
vn 0.3321 -0.7815 -0.5281
vn -0.1133 0.8794 -0.4624
vn -0.3321 0.7815 0.5281
vn 0.3321 -0.8208 0.4647
vn 0.5283 -0.6683 -0.5236
vn -0.3321 0.8208 -0.4647
vn -0.5283 0.6683 0.5236
vn 0.5283 -0.7076 0.4692
vn 0.6885 -0.5083 -0.5173
vn -0.5283 0.7076 -0.4692
vn -0.6885 0.5083 0.5173
vn 0.6885 -0.5476 0.4755
vn 0.8018 -0.3122 -0.5095
vn -0.6885 0.5476 -0.4755
vn -0.8018 0.3122 0.5095
vn 0.8018 -0.3515 0.4833
vn -0.8018 0.3515 -0.4833
vn -0.8605 0.0935 0.5009
vn 0.8605 -0.1328 0.4919
vn -0.8605 0.1328 -0.4919
vn 0.8018 0.3515 -0.4833
vn -0.8018 -0.3515 0.4833
vn -0.8018 -0.3122 -0.5095
vn -0.6885 -0.5083 -0.5173
vt 0.500000 0.666667
vt 0.500000 0.500000
vt 0.541667 0.500000
vt 0.541667 0.666667
vt 0.500000 0.833333
vt 0.541667 0.833333
vt 0.500000 1.000000
vt 0.541667 0.000000
vt 0.500000 0.166667
vt 0.541667 0.166667
vt 0.500000 0.333333
vt 0.541667 0.333333
vt 0.583333 0.500000
vt 0.583333 0.666667
vt 0.625000 0.166667
vt 0.625000 1.000000
vt 0.666667 0.000000
vt 0.666667 0.166667
vt 0.625000 0.500000
vt 0.625000 0.666667
vt 0.583333 1.000000
vt 0.583333 0.833333
vt 0.625000 0.833333
vt 0.625000 0.000000
vt 0.458333 0.500000
vt 0.458333 0.333333
vt 0.583333 0.333333
vt 0.583333 0.166667
vt 0.625000 0.333333
vt 0.666667 0.500000
vt 0.666667 0.666667
vt 0.666667 0.833333
vt 0.666667 1.000000
vt 0.708333 0.000000
vt 0.708333 0.166667
vt 0.666667 0.333333
vt 0.708333 0.500000
vt 0.708333 0.666667
vt 0.708333 0.833333
vt 0.708333 1.000000
vt 0.750000 0.000000
vt 0.750000 0.166667
vt 0.708333 0.333333
vt 0.750000 0.500000
vt 0.750000 0.666667
vt 0.750000 0.833333
vt 0.750000 1.000000
vt 0.791667 0.000000
vt 0.791667 0.166667
vt 0.750000 0.333333
vt 0.791667 0.500000
vt 0.791667 0.666667
vt 0.791667 0.833333
vt 0.791667 1.000000
vt 0.833333 0.000000
vt 0.833333 0.166667
vt 0.791667 0.333333
vt 0.833333 0.500000
vt 0.833333 0.666667
vt 0.833333 0.833333
vt 0.833333 1.000000
vt 0.875000 0.000000
vt 0.875000 0.166667
vt 0.833333 0.333333
vt 0.875000 0.500000
vt 0.875000 0.666667
vt 0.875000 0.833333
vt 0.875000 1.000000
vt 0.916667 0.000000
vt 0.916667 0.166667
vt 0.875000 0.333333
vt 0.916667 0.500000
vt 0.916667 0.666667
vt 0.916667 0.833333
vt 0.916667 1.000000
vt 0.958333 0.000000
vt 0.958333 0.166667
vt 0.916667 0.333333
vt 0.958333 0.500000
vt 0.958333 0.666667
vt 0.958333 0.833333
vt 0.958333 1.000000
vt 0.000000 0.000000
vt 1.000000 0.166667
vt 0.958333 0.333333
vt 0.000000 0.500000
vt 1.000000 0.666667
vt 0.000000 0.833333
vt 1.000000 0.000000
vt 0.000000 0.666667
vt 1.000000 0.833333
vt 0.000000 1.000000
vt 0.041667 0.000000
vt 0.041667 0.166667
vt 0.000000 0.166667
vt 1.000000 0.333333
vt 0.000000 0.333333
vt 1.000000 0.500000
vt 0.041667 0.500000
vt 0.041667 0.666667
vt 1.000000 1.000000
vt 0.041667 0.833333
vt 0.041667 1.000000
vt 0.083333 0.000000
vt 0.083333 0.166667
vt 0.041667 0.333333
vt 0.083333 0.500000
vt 0.083333 0.666667
vt 0.083333 0.833333
vt 0.083333 1.000000
vt 0.125000 0.000000
vt 0.125000 0.166667
vt 0.083333 0.333333
vt 0.125000 0.500000
vt 0.125000 0.666667
vt 0.125000 0.833333
vt 0.125000 1.000000
vt 0.166667 0.000000
vt 0.166667 0.166667
vt 0.125000 0.333333
vt 0.166667 0.500000
vt 0.166667 0.666667
vt 0.166667 0.833333
vt 0.166667 1.000000
vt 0.208333 0.000000
vt 0.208333 0.166667
vt 0.166667 0.333333
vt 0.208333 0.500000
vt 0.208333 0.666667
vt 0.208333 0.833333
vt 0.208333 1.000000
vt 0.250000 0.000000
vt 0.250000 0.166667
vt 0.208333 0.333333
vt 0.250000 0.500000
vt 0.250000 0.666667
vt 0.250000 0.833333
vt 0.250000 1.000000
vt 0.291667 0.000000
vt 0.291667 0.166667
vt 0.250000 0.333333
vt 0.291667 0.500000
vt 0.291667 0.666667
vt 0.291667 0.833333
vt 0.291667 1.000000
vt 0.333333 0.000000
vt 0.333333 0.166667
vt 0.291667 0.333333
vt 0.333333 0.500000
vt 0.333333 0.666667
vt 0.333333 0.833333
vt 0.333333 1.000000
vt 0.375000 0.000000
vt 0.375000 0.166667
vt 0.333333 0.333333
vt 0.375000 0.500000
vt 0.375000 0.666667
vt 0.375000 0.833333
vt 0.375000 1.000000
vt 0.416667 0.000000
vt 0.416667 0.166667
vt 0.375000 0.333333
vt 0.416667 0.500000
vt 0.416667 0.666667
vt 0.416667 0.833333
vt 0.416667 1.000000
vt 0.458333 0.000000
vt 0.458333 0.166667
vt 0.416667 0.333333
vt 0.458333 0.666667
vt 0.458333 0.833333
vt 0.500000 0.000000
vt 0.458333 1.000000
vt 0.541667 1.000000
vt 0.583333 0.000000
s 0
usemtl Material.008
f 163/131/130 162/132/130 168/133/130 169/134/130
f 164/135/131 163/131/131 169/134/131 170/136/131
f 165/137/132 164/135/132 170/136/132 171/138/132
f 166/139/133 165/137/133 171/138/133 172/140/133
f 167/141/134 166/139/134 172/140/134 173/142/134
f 169/134/135 168/133/135 174/143/135 175/144/135
f 162/132/136 167/141/136 173/142/136 168/133/136
f 184/145/137 183/146/137 189/147/137 190/148/137
f 175/144/138 174/143/138 180/149/138 181/150/138
f 177/151/139 176/152/139 182/153/139 183/154/139
f 176/152/131 175/144/131 181/150/131 182/153/131
f 167/141/140 162/132/140 300/155/140 305/156/140
f 179/157/134 178/158/134 184/145/134 185/159/134
f 174/143/141 179/157/141 185/159/141 180/149/141
f 181/150/142 180/149/142 186/160/142 187/161/142
f 183/146/143 182/153/143 188/162/143 189/147/143
f 182/153/131 181/150/131 187/161/131 188/162/131
f 190/148/144 189/163/144 195/164/144 196/165/144
f 185/159/134 184/145/134 190/148/134 191/166/134
f 180/149/145 185/159/145 191/166/145 186/160/145
f 187/161/146 186/160/146 192/167/146 193/168/146
f 189/163/147 188/162/147 194/169/147 195/164/147
f 188/162/131 187/161/131 193/168/131 194/169/131
f 196/165/148 195/170/148 201/171/148 202/172/148
f 191/166/134 190/148/134 196/165/134 197/173/134
f 186/160/149 191/166/149 197/173/149 192/167/149
f 193/168/150 192/167/150 198/174/150 199/175/150
f 195/170/151 194/169/151 200/176/151 201/171/151
f 194/169/131 193/168/131 199/175/131 200/176/131
f 202/172/152 201/177/152 207/178/152 208/179/152
f 197/173/134 196/165/134 202/172/134 203/180/134
f 192/167/153 197/173/153 203/180/153 198/174/153
f 199/175/154 198/174/154 204/181/154 205/182/154
f 201/177/155 200/176/155 206/183/155 207/178/155
f 200/176/131 199/175/131 205/182/131 206/183/131
f 208/179/156 207/184/156 213/185/156 214/186/156
f 203/180/134 202/172/134 208/179/134 209/187/134
f 198/174/157 203/180/157 209/187/157 204/181/157
f 205/182/158 204/181/158 210/188/158 211/189/158
f 207/184/159 206/183/159 212/190/159 213/185/159
f 206/183/131 205/182/131 211/189/131 212/190/131
f 214/186/160 213/191/160 219/192/160 220/193/160
f 209/187/134 208/179/134 214/186/134 215/194/134
f 204/181/161 209/187/161 215/194/161 210/188/161
f 211/189/162 210/188/162 216/195/162 217/196/162
f 213/191/163 212/190/163 218/197/163 219/192/163
f 212/190/131 211/189/131 217/196/131 218/197/131
f 220/193/164 219/198/164 225/199/164 226/200/164
f 215/194/134 214/186/134 220/193/134 221/201/134
f 210/188/165 215/194/165 221/201/165 216/195/165
f 217/196/166 216/195/166 222/202/166 223/203/166
f 219/198/167 218/197/167 224/204/167 225/199/167
f 218/197/131 217/196/131 223/203/131 224/204/131
f 226/200/168 225/205/168 231/206/168 232/207/168
f 221/201/134 220/193/134 226/200/134 227/208/134
f 216/195/169 221/201/169 227/208/169 222/202/169
f 223/203/170 222/202/170 228/209/170 229/210/170
f 225/205/171 224/204/171 230/211/171 231/206/171
f 224/204/131 223/203/131 229/210/131 230/211/131
f 232/207/140 231/212/140 237/213/140 238/214/140
f 227/208/134 226/200/134 232/207/134 233/215/134
f 222/202/172 227/208/172 233/215/172 228/209/172
f 229/210/173 228/209/173 234/216/173 235/217/173
f 231/212/174 230/211/174 236/218/174 237/219/174
f 230/211/131 229/210/131 235/220/131 236/221/131
f 238/214/136 237/222/136 243/223/136 244/224/136
f 233/215/134 232/207/134 238/225/134 239/226/134
f 228/209/175 233/215/175 239/227/175 234/228/175
f 235/217/132 234/216/132 240/229/132 241/230/132
f 237/231/130 236/218/130 242/232/130 243/223/130
f 236/221/131 235/220/131 241/230/131 242/232/131
f 244/224/176 243/233/176 249/234/176 250/235/176
f 239/226/134 238/225/134 244/224/134 245/236/134
f 234/228/133 239/227/133 245/236/133 240/229/133
f 241/230/177 240/229/177 246/237/177 247/238/177
f 243/233/135 242/232/135 248/239/135 249/234/135
f 242/232/131 241/230/131 247/238/131 248/239/131
f 250/235/141 249/240/141 255/241/141 256/242/141
f 245/236/134 244/224/134 250/235/134 251/243/134
f 240/229/178 245/236/178 251/243/178 246/237/178
f 247/238/139 246/237/139 252/244/139 253/245/139
f 249/240/138 248/239/138 254/246/138 255/241/138
f 248/239/131 247/238/131 253/245/131 254/246/131
f 256/242/145 255/247/145 261/248/145 262/249/145
f 251/243/134 250/235/134 256/242/134 257/250/134
f 246/237/179 251/243/179 257/250/179 252/244/179
f 253/245/143 252/244/143 258/251/143 259/252/143
f 255/247/142 254/246/142 260/253/142 261/248/142
f 254/246/131 253/245/131 259/252/131 260/253/131
f 262/249/149 261/254/149 267/255/149 268/256/149
f 257/250/134 256/242/134 262/249/134 263/257/134
f 252/244/137 257/250/137 263/257/137 258/251/137
f 259/252/147 258/251/147 264/258/147 265/259/147
f 261/254/146 260/253/146 266/260/146 267/255/146
f 260/253/131 259/252/131 265/259/131 266/260/131
f 268/256/153 267/261/153 273/262/153 274/263/153
f 263/257/134 262/249/134 268/256/134 269/264/134
f 258/251/144 263/257/144 269/264/144 264/258/144
f 265/259/151 264/258/151 270/265/151 271/266/151
f 267/261/150 266/260/150 272/267/150 273/262/150
f 266/260/131 265/259/131 271/266/131 272/267/131
f 274/263/157 273/268/157 279/269/157 280/270/157
f 269/264/134 268/256/134 274/263/134 275/271/134
f 264/258/148 269/264/148 275/271/148 270/265/148
f 271/266/155 270/265/155 276/272/155 277/273/155
f 273/268/154 272/267/154 278/274/154 279/269/154
f 272/267/131 271/266/131 277/273/131 278/274/131
f 280/270/161 279/275/161 285/276/161 286/277/161
f 275/271/134 274/263/134 280/270/134 281/278/134
f 270/265/152 275/271/152 281/278/152 276/272/152
f 277/273/159 276/272/159 282/279/159 283/280/159
f 279/275/158 278/274/158 284/281/158 285/276/158
f 278/274/131 277/273/131 283/280/131 284/281/131
f 286/277/165 285/282/165 291/283/165 292/284/165
f 281/278/134 280/270/134 286/277/134 287/285/134
f 276/272/156 281/278/156 287/285/156 282/279/156
f 283/280/163 282/279/163 288/286/163 289/287/163
f 285/282/162 284/281/162 290/288/162 291/283/162
f 284/281/131 283/280/131 289/287/131 290/288/131
f 292/284/169 291/289/169 297/290/169 298/291/169
f 287/285/134 286/277/134 292/284/134 293/292/134
f 282/279/160 287/285/160 293/292/160 288/286/160
f 289/287/167 288/286/167 294/293/167 295/294/167
f 291/289/166 290/288/166 296/295/166 297/290/166
f 290/288/131 289/287/131 295/294/131 296/295/131
f 298/291/172 297/296/172 303/297/172 304/298/172
f 293/292/134 292/284/134 298/291/134 299/299/134
f 288/286/164 293/292/164 299/299/164 294/293/164
f 295/294/171 294/293/171 300/155/171 301/300/171
f 297/296/170 296/295/170 302/301/170 303/297/170
f 296/295/131 295/294/131 301/300/131 302/301/131
f 299/299/134 298/291/134 304/298/134 305/156/134
f 294/293/168 299/299/168 305/156/168 300/155/168
f 164/135/173 165/302/173 303/303/173 302/301/173
f 170/136/131 169/134/131 175/144/131 176/152/131
f 162/132/174 163/131/174 301/300/174 300/155/174
f 178/158/179 177/151/179 183/154/179 184/145/179
f 166/139/134 167/141/134 305/156/134 304/298/134
f 163/131/131 164/135/131 302/301/131 301/300/131
f 171/304/177 170/136/177 176/152/177 177/305/177
f 172/140/178 171/304/178 177/305/178 178/158/178
f 173/142/134 172/140/134 178/158/134 179/157/134
f 168/133/176 173/142/176 179/157/176 174/143/176
f 165/302/175 166/139/175 304/298/175 303/303/175
